# xmcd
# 
# Track frame offsets:
#     150
#     5840
#     22497
#     36900
#     55440
#     76365
#     93470
#     111075
#     125820
#     141830
#     158735
#     177397
#     191377
# 
# Disc length: 2645
# 
# Revision: 8
# Processed by: cddbd v1.5.2PL0 Copyright (c) Steve Scherf et al.
# Submitted via: BonkEnc v1.0.5
# 
DISCID=ba0a530d
DTITLE=Electric Light Orchestra - Time
DYEAR=1981
DGENRE=Rock
TTITLE0=Prologue
TTITLE1=Twilight
TTITLE2=Yours Truly, 2095
TTITLE3=Ticket To The Moon
TTITLE4=The Way Life's Meant To Be
TTITLE5=Another Heart Breaks
TTITLE6=Rain Is Falling
TTITLE7=From The End Of The World
TTITLE8=The Lights Go Down
TTITLE9=Here Is The News
TTITLE10=21st Century Man
TTITLE11=Hold On Tight
TTITLE12=Epilogue
EXTD=YEAR: 1981
EXTT0=
EXTT1=
EXTT2=
EXTT3=
EXTT4=
EXTT5=
EXTT6=
EXTT7=
EXTT8=
EXTT9=
EXTT10=
EXTT11=
EXTT12=
PLAYORDER=
